<?xml version="1.0" standalone="no"?><!DOCTYPE svg PUBLIC "-//W3C//DTD SVG 1.1//EN" "http://www.w3.org/Graphics/SVG/1.1/DTD/svg11.dtd"><svg t="1547797906813" class="icon" style="" viewBox="0 0 1168 1024" version="1.1" xmlns="http://www.w3.org/2000/svg" p-id="67577" xmlns:xlink="http://www.w3.org/1999/xlink" width="36.5" height="32"><defs><style type="text/css"></style></defs><path d="M847.72147 460.700967a13.864603 13.864603 0 0 0-13.864603 13.864604v217.476208a69.323017 69.323017 0 0 1-69.323018 69.204178h-360.043946a69.323017 69.323017 0 0 1-69.243791-69.243791V331.997834a69.323017 69.323017 0 0 1 69.243791-69.243791h219.694546a13.864603 13.864603 0 1 0 0-27.729207h-219.694546a96.933385 96.933385 0 0 0-96.933385 96.972998v360.004332a96.933385 96.933385 0 0 0 96.933385 96.933385H764.533849a96.933385 96.933385 0 0 0 96.933385-96.933385v-217.476209a13.864603 13.864603 0 0 0-13.745764-13.82499z" fill="#ffffff" p-id="67578"></path><path d="M413.284023 680.395513c9.467544 9.229865 24.441315 11.170909 39.613153 5.149709l114.600851-50.823675a13.82499 13.82499 0 0 0 2.852147-1.703365l0.713037-0.475358a13.349632 13.349632 0 0 0 3.010599-2.297563l274.162631-274.16263a41.554197 41.554197 0 0 0 0-58.746306l-48.882631-48.882631a41.59381 41.59381 0 0 0-58.746305 0l-274.123018 274.162631a14.339961 14.339961 0 0 0-1.901431 2.337176l-0.514971 0.673424a14.023056 14.023056 0 0 0-1.941044 2.931373l-55.458414 112.065609c-5.427002 15.409516-3.050213 30.383288 6.615396 39.771606z m346.892379-412.372921a14.181509 14.181509 0 0 1 19.568898 0L828.74677 316.905222a13.864603 13.864603 0 0 1 0 19.568898l-29.353346 29.353346-68.530755-68.530754zM711.254159 316.905222l68.530754 68.530755-205.631876 205.592263-68.530755-68.530755zM431.783366 654.211219a27.927273 27.927273 0 0 1 0.911102-3.327505l0.316905-0.75265 53.319304-107.827002 68.055397 68.055396-112.025997 49.635281a27.966886 27.966886 0 0 1-3.169052 1.109168l-9.309091 2.535242z" fill="#ffffff" p-id="67579"></path></svg>