<?xml version="1.0" standalone="no"?><!DOCTYPE svg PUBLIC "-//W3C//DTD SVG 1.1//EN" "http://www.w3.org/Graphics/SVG/1.1/DTD/svg11.dtd"><svg t="1547797964515" class="icon" style="" viewBox="0 0 1024 1024" version="1.1" xmlns="http://www.w3.org/2000/svg" p-id="68493" xmlns:xlink="http://www.w3.org/1999/xlink" width="32" height="32"><defs><style type="text/css"></style></defs><path d="M291.1 569.9L170.7 813.7c-10.1 27.4 11.9 52 39.3 39.3l243.6-120.5c10.5-2.1 20.7-6.1 28.8-14.3l432.7-433c21.7-21.7 21.7-57 0-78.7l-98.4-98.4c-21.7-21.7-56.9-21.7-78.7 0l-432.7 433c-8.1 8.1-12.2 18.3-14.2 28.8z m466.6-402.8c10.9-10.9 28.5-10.9 39.3 0l59 59c10.9 10.9 10.9 28.5 0 39.4l-59 59-96.9-99.8 57.6-57.6z m-99 99.1l99 97.7L443 678.8c-36.9-36.9-87.9-88-98.3-98.4l314-314.2zM394 708.5l-150.4 91.1c-13.7 6.4-26-6.8-19.6-19.7l91-150.4 79 79z" fill="#ffffff" p-id="68494"></path><path d="M904 400v448c0 30.7-30.4 56.3-61.1 56.3H175.3c-30.7 0-55.6-24.9-55.6-55.7v-668c0-30.7 25.6-60.6 56.4-60.6h448V64H176c-61.5 0-112 55.1-112 116.6v668C64 910.2 113.8 960 175.3 960h667.6c61.4 0 117.1-50.5 117.1-112V400h-56z" fill="#ffffff" p-id="68495"></path></svg>