<?xml version="1.0" standalone="no"?><!DOCTYPE svg PUBLIC "-//W3C//DTD SVG 1.1//EN" "http://www.w3.org/Graphics/SVG/1.1/DTD/svg11.dtd"><svg t="1547790526286" class="icon" style="" viewBox="0 0 1024 1024" version="1.1" xmlns="http://www.w3.org/2000/svg" p-id="43289" xmlns:xlink="http://www.w3.org/1999/xlink" width="32" height="32"><defs><style type="text/css"></style></defs><path d="M117.76 844.8s-5.12 0 0 0C51.2 839.68 5.12 788.48 5.12 727.04V343.04c0-61.44 51.2-112.64 112.64-112.64h486.4c30.72 0 56.32 15.36 76.8 35.84 20.48 20.48 30.72 51.2 30.72 76.8V737.28c0 30.72-15.36 56.32-35.84 76.8-20.48 20.48-51.2 30.72-76.8 30.72H117.76z m-5.12-51.2h486.4c15.36 0 35.84-5.12 46.08-15.36 10.24-10.24 20.48-25.6 20.48-46.08V343.04c0-15.36-5.12-35.84-15.36-46.08-10.24-10.24-25.6-20.48-46.08-20.48H122.88C81.92 276.48 51.2 307.2 51.2 343.04v389.12c0 30.72 30.72 61.44 61.44 61.44z m860.16-35.84c-10.24 0-20.48-5.12-35.84-10.24l-133.12-71.68c-20.48-15.36-51.2-30.72-51.2-66.56V440.32c0-40.96 35.84-61.44 56.32-71.68l128-71.68c20.48-10.24 40.96-10.24 56.32-5.12 15.36 10.24 20.48 25.6 20.48 40.96v373.76c0 20.48-10.24 35.84-20.48 40.96-5.12 10.24-15.36 10.24-20.48 10.24z m-138.24-117.76l128 71.68c5.12 5.12 10.24 5.12 10.24 5.12V343.04h-10.24L834.56 409.6c-20.48 15.36-30.72 20.48-30.72 30.72v163.84c0 15.36 5.12 15.36 30.72 35.84zM235.52 563.2h-20.48c-35.84-15.36-66.56-46.08-76.8-87.04-15.36-56.32 20.48-112.64 76.8-128 15.36-5.12 30.72-5.12 46.08 0 56.32 15.36 92.16 71.68 76.8 133.12-10.24 51.2-56.32 81.92-102.4 81.92z m-5.12-46.08c25.6 5.12 56.32-15.36 61.44-46.08 10.24-30.72-10.24-66.56-46.08-76.8h-25.6c-25.6 10.24-46.08 40.96-40.96 66.56 10.24 25.6 25.6 46.08 51.2 56.32z" fill="#ffffff" p-id="43290"></path></svg>