<?xml version="1.0" standalone="no"?><!DOCTYPE svg PUBLIC "-//W3C//DTD SVG 1.1//EN" "http://www.w3.org/Graphics/SVG/1.1/DTD/svg11.dtd"><svg t="1547641818847" class="icon" style="" viewBox="0 0 1024 1024" version="1.1" xmlns="http://www.w3.org/2000/svg" p-id="7800" xmlns:xlink="http://www.w3.org/1999/xlink" width="32" height="32"><defs><style type="text/css"></style></defs><path d="M908.681846 0c-31.035077 0-56.123077 25.088-56.123077 56.123077v957.991385h112.246154V56.004923C964.804923 25.088 939.716923 0 908.681846 0z m-264.388923 517.632c-30.995692 0-56.083692 25.088-56.083692 56.123077v440.359385h112.246154V573.755077c0-31.035077-25.127385-56.123077-56.162462-56.123077zM379.943385 112.758154c-31.035077 0-56.123077 25.088-56.123077 56.123077V1014.153846h112.246154V168.96c0-30.916923-25.206154-56.162462-56.123077-56.162462zM115.318154 311.138462C84.283077 311.138462 59.195077 336.187077 59.195077 367.222154V1014.153846h112.246154V367.340308c0-30.995692-25.206154-56.241231-56.123077-56.241231z" p-id="7801" fill="#ffffff"></path></svg>