<?xml version="1.0" standalone="no"?><!DOCTYPE svg PUBLIC "-//W3C//DTD SVG 1.1//EN" "http://www.w3.org/Graphics/SVG/1.1/DTD/svg11.dtd"><svg t="1547713867397" class="icon" style="" viewBox="0 0 1024 1024" version="1.1" xmlns="http://www.w3.org/2000/svg" p-id="28333" xmlns:xlink="http://www.w3.org/1999/xlink" width="32" height="32"><defs><style type="text/css"></style></defs><path d="M527.36 896v-20.48L133.12 491.52c-40.96-46.08-61.44-92.16-61.44-158.72 0-133.12 97.28-215.04 215.04-215.04 102.4 0 189.44 61.44 225.28 148.48 35.84-87.04 122.88-148.48 225.28-148.48 128 0 215.04 76.8 215.04 215.04 0 25.6-5.12 51.2-10.24 76.8h71.68c5.12-25.6 10.24-51.2 10.24-76.8C1024 174.08 896 46.08 737.28 46.08c-92.16 0-174.08 40.96-225.28 112.64C455.68 87.04 373.76 46.08 286.72 46.08 128 46.08 0 174.08 0 332.8c0 76.8 30.72 143.36 81.92 199.68l404.48 404.48 30.72 30.72 10.24 10.24v-81.92z" p-id="28334" fill="#d81e06"></path><path d="M839.68 537.6v148.48h148.48v51.2h-148.48v163.84h-56.32v-163.84h-158.72v-51.2h158.72v-148.48h56.32z" p-id="28335" fill="#d81e06"></path></svg>