<?xml version="1.0" standalone="no"?><!DOCTYPE svg PUBLIC "-//W3C//DTD SVG 1.1//EN" "http://www.w3.org/Graphics/SVG/1.1/DTD/svg11.dtd"><svg t="1547713946987" class="icon" style="" viewBox="0 0 1024 1024" version="1.1" xmlns="http://www.w3.org/2000/svg" p-id="34813" xmlns:xlink="http://www.w3.org/1999/xlink" width="32" height="32"><defs><style type="text/css"></style></defs><path d="M237.78304 146.05312h-47.0528V97.69984c0-13.312-10.56768-24.1664-23.53152-24.1664-12.97408 0-23.53152 10.8544-23.53152 24.1664v48.35328H96.60416c-12.97408 0-23.53152 10.8544-23.53152 24.17664 0 13.33248 10.55744 24.17664 23.53152 24.17664h47.06304v48.35328c0 13.33248 10.55744 24.17664 23.53152 24.17664 12.96384 0 23.53152-10.8544 23.53152-24.1664v-48.36352h47.0528c12.97408 0 23.53152-10.8544 23.53152-24.1664 0-13.33248-10.55744-24.18688-23.53152-24.18688zM399.43168 461.58848h-36.77184v-37.7856c0-10.43456-8.2944-18.944-18.45248-18.944s-18.45248 8.50944-18.45248 18.944v37.7856h-36.7616c-10.15808 0-18.45248 8.51968-18.45248 18.95424 0 10.4448 8.2944 18.95424 18.45248 18.95424h36.7616v37.7856c0 10.43456 8.2944 18.944 18.45248 18.944 10.16832 0 18.45248-8.50944 18.45248-18.944v-37.7856h36.7616c10.16832 0 18.45248-8.50944 18.45248-18.95424s-8.2944-18.95424-18.44224-18.95424z" p-id="34814" fill="#d81e06"></path><path d="M393.80992 463.5136h-33.024V429.568c0-9.33888-7.35232-17.02912-16.57856-17.02912-9.09312 0-16.57856 7.55712-16.57856 17.02912v33.93536H294.6048c-9.09312 0-16.57856 7.54688-16.57856 17.02912 0 9.33888 7.35232 17.02912 16.5888 17.02912h33.01376v33.93536c0 9.33888 7.35232 17.02912 16.5888 17.02912 9.08288 0 16.56832-7.55712 16.56832-17.02912V497.5616h33.024c9.09312 0 16.5888-7.54688 16.5888-17.02912 0-9.33888-7.36256-17.02912-16.5888-17.02912z" p-id="34815" fill="#d81e06"></path><path d="M580.72064 115.01568a394.5472 394.5472 0 0 1 50.13504 193.1264c0 214.30272-169.12384 388.06528-377.69216 388.06528a367.2064 367.2064 0 0 1-82.8928-9.48224c61.9008 143.55456 201.61536 243.69152 364.1856 243.69152 219.93472 0 398.2848-183.2448 398.2848-409.21088 0-209.75616-153.87648-382.69952-352.02048-406.19008z" p-id="34816" fill="#d81e06"></path></svg>