<?xml version="1.0" standalone="no"?><!DOCTYPE svg PUBLIC "-//W3C//DTD SVG 1.1//EN" "http://www.w3.org/Graphics/SVG/1.1/DTD/svg11.dtd"><svg t="1547644126731" class="icon" style="" viewBox="0 0 1024 1024" version="1.1" xmlns="http://www.w3.org/2000/svg" p-id="36951" xmlns:xlink="http://www.w3.org/1999/xlink" width="32" height="32"><defs><style type="text/css"></style></defs><path d="M564.729945 581.665663c76.381621-47.983851 127.265522-132.974547 127.265522-229.639121 0-149.433404-121.57287-271.006274-271.00525-271.006274-149.434427 0-271.006274 121.57287-271.006274 271.006274 0 96.664573 50.883901 181.660386 127.260405 229.639121-39.677675 17.533328-76.175937 42.450834-107.772562 74.04746-67.184145 67.182099-104.181781 156.509567-104.181781 251.519453 0 19.741623 16.006556 35.747155 35.752272 35.747156 19.7406 0 35.746132-16.006556 35.746132-35.747156 0-156.710135 127.490649-284.199761 284.200784-284.19976 156.709111 0 284.198737 127.489626 284.198738 284.19976 0 19.741623 16.006556 35.747155 35.752272 35.747156 19.739577 0 35.746132-16.006556 35.746132-35.747156 0-95.009887-36.996612-184.337355-104.179734-251.519453-31.600719-31.596625-68.093864-56.514131-107.776656-74.04746zM420.990217 551.534412c-110.010533 0-199.50787-89.502453-199.50787-199.50787 0-110.00951 89.497337-199.505823 199.50787-199.505823 110.008486 0 199.505823 89.496313 199.505823 199.505823 0 110.010533-89.497337 199.50787-199.505823 199.50787z" fill="#d81e06" p-id="36952"></path><path d="M888.026142 653.438313c-31.162744-41.671075-71.562872-76.182077-117.207445-100.738356 53.530171-50.575886 84.999906-121.591289 84.999906-197.10003 0-47.294143-12.373819-93.861738-35.786041-134.677329-22.684652-39.550785-55.253418-73.012897-94.190219-96.78123-16.84976-10.289344-38.85289-4.960988-49.140187 11.888772-10.289344 16.850783-4.966105 38.851866 11.889795 49.14121 59.941184 36.591383 95.727225 100.302427 95.727225 170.428577 0 70.040193-36.798091 134.829801-96.514148 170.894182-10.957563 3.324722-20.132526 11.845793-23.789822 23.603581-3.174296 10.210549-1.538029 20.75879 3.61841 29.219485 5.78168 10.086729 15.752776 16.313547 26.498514 17.685801C809.910017 636.060527 887.210567 743.399207 887.210567 866.279862c0 19.745716 16.006556 35.752272 35.752272 35.752272 19.741623 0 35.746132-16.006556 35.746132-35.752272 0-77.406974-24.437575-151.010319-70.682829-212.841549z" fill="#d81e06" p-id="36953"></path></svg>