<?xml version="1.0" standalone="no"?><!DOCTYPE svg PUBLIC "-//W3C//DTD SVG 1.1//EN" "http://www.w3.org/Graphics/SVG/1.1/DTD/svg11.dtd"><svg t="1547644218382" class="icon" style="" viewBox="0 0 1024 1024" version="1.1" xmlns="http://www.w3.org/2000/svg" p-id="37969" xmlns:xlink="http://www.w3.org/1999/xlink" width="32" height="32"><defs><style type="text/css"></style></defs><path d="M987.884454 957.067588c0-193.530738-115.53741-360.056426-281.387715-434.42418 60.607356-53.734832 98.82068-132.166135 98.82068-219.534995 0-161.994488-131.322931-293.317419-293.317419-293.317419S218.682581 141.113925 218.682581 303.109436c0 87.36886 38.2123 165.800163 98.82068 219.534995C151.651932 597.012186 36.114522 763.53685 36.114522 957.067588c0 1.877767 0.014326 3.752464 0.035816 5.625114l0 56.18872 951.734116 0 0-56.18872-0.035816 0C987.871151 960.820052 987.884454 958.945355 987.884454 957.067588zM270.876314 303.109436c0-133.168975 107.954711-241.123686 241.123686-241.123686S753.123686 169.94046 753.123686 303.109436 645.168975 544.232099 512 544.232099 270.876314 436.277388 270.876314 303.109436zM99.9412 962.692702c-0.024559-1.87265-0.039909-3.747347-0.039909-5.625114 0-182.089152 118.106932-336.574618 281.887089-391.08 39.235606 19.472494 83.439364 30.438243 130.211621 30.438243 46.772256 0 90.976014-10.965749 130.211621-30.438243C805.990754 620.49297 924.097686 774.978437 924.097686 957.067588c0 1.877767-0.014326 3.752464-0.039909 5.625114L99.9412 962.692702z" p-id="37970" fill="#d81e06"></path></svg>