<?xml version="1.0" standalone="no"?><!DOCTYPE svg PUBLIC "-//W3C//DTD SVG 1.1//EN" "http://www.w3.org/Graphics/SVG/1.1/DTD/svg11.dtd"><svg t="1547643957055" class="icon" style="" viewBox="0 0 1024 1024" version="1.1" xmlns="http://www.w3.org/2000/svg" p-id="34740" xmlns:xlink="http://www.w3.org/1999/xlink" width="32" height="32"><defs><style type="text/css"></style></defs><path d="M210.04587 979.584808c-101.563991 0-184.191726-82.627735-184.191726-184.191726 0-101.552265 82.627735-184.180001 184.191726-184.180001 42.656407 0 84.245818 14.9145 117.088203 42.011519a184.613834 184.613834 0 0 1 63.304547 104.893958c2.5092 12.194245 3.787251 24.728522 3.787251 37.274524 0.011725 101.563991-82.627735 184.191726-184.180001 184.191726z m0-328.048642c-79.332944 0-143.868641 64.535697-143.86864 143.856916 0 79.332944 64.535697 143.868641 143.86864 143.86864 79.321219 0 143.856915-64.535697 143.856916-143.86864 0-9.814022-0.996645-19.616319-2.954759-29.148936-13.659899-66.458635-72.930965-114.70798-140.902157-114.70798zM808.326017 885.466341c-101.563991 0-184.191726-82.627735-184.191726-184.191725 0-101.552265 82.627735-184.180001 184.191726-184.180001a184.437956 184.437956 0 0 1 117.099927 42.011519 184.590384 184.590384 0 0 1 63.292822 104.893958c2.5092 12.194245 3.775526 24.740247 3.775526 37.274524 0.011725 101.575716-82.61601 184.191726-184.168275 184.191725z m0-328.036916c-79.332944 0-143.856915 64.535697-143.856916 143.856916 0 79.332944 64.523971 143.868641 143.856916 143.868641 79.321219 0 143.856915-64.535697 143.856915-143.868641 0-9.814022-0.996645-19.616319-2.954759-29.148936-13.68335-66.470361-72.930965-114.70798-140.902156-114.70798z" p-id="34741" fill="#707070"></path><path d="M368.01997 762.456895c-11.138974 0-20.17913-9.040157-20.179131-20.167405v-559.727572c-1.50083-7.609678-3.388593-25.971397 7.656579-44.426917 11.045172-18.443796 31.060149-30.802194 59.48212-36.723438 0.586262-0.117252 1.172524-0.222779 1.74706-0.281406l499.706091-58.942759c7.328272-2.016741 26.557659-5.440509 44.81385 7.304821 20.284658 14.140634 30.567689 42.316375 30.567689 83.776809v549.866648a20.167405 20.167405 0 0 1-40.346535 0v-549.866648c0-38.423597-10.177504-48.519025-13.296418-50.688194-4.666644-3.24789-10.599613-1.664983-10.646513-1.641533a20.730217 20.730217 0 0 1-4.619743 1.102172l-500.550308 59.048287c-15.981496 3.458944-27.050119 9.462265-32.033343 17.376799-4.584567 7.304822-3.212715 14.984851-2.931309 16.356704 0.668338 1.981565 0.750415 3.353417 0.750415 5.499135v561.990542a20.108779 20.108779 0 0 1-20.120504 20.143955z" p-id="34742" fill="#707070"></path><path d="M367.996519 357.783839a20.167405 20.167405 0 0 1-2.321597-40.194108l598.268421-69.91758a20.15568 20.15568 0 1 1 4.678369 40.053405l-598.268421 69.91758a20.167405 20.167405 0 0 1-2.356772 0.140703z" p-id="34743" fill="#707070"></path></svg>