<?xml version="1.0" standalone="no"?><!DOCTYPE svg PUBLIC "-//W3C//DTD SVG 1.1//EN" "http://www.w3.org/Graphics/SVG/1.1/DTD/svg11.dtd"><svg t="1547643789599" class="icon" style="" viewBox="0 0 1024 1024" version="1.1" xmlns="http://www.w3.org/2000/svg" p-id="32318" xmlns:xlink="http://www.w3.org/1999/xlink" width="32" height="32"><defs><style type="text/css"></style></defs><path d="M387.393164 325.051733 695.818861 503.894885 387.393164 684.320582 387.393164 325.051733ZM385.686497 252.409794C378.704679 248.360339 370.807467 247.444945 363.515345 249.089552 361.281164 248.577552 358.984921 248.251733 356.611103 248.251733 339.606497 248.251733 325.813527 262.029188 325.813527 279.033794L325.813527 729.454158C325.813527 746.458764 339.606497 760.251733 356.611103 760.251733 359.217648 760.251733 361.700073 759.832824 364.120436 759.212218 371.645285 761.229188 379.930376 760.344824 387.206982 756.093673L758.500073 538.881552C769.608921 532.380703 773.020826 526.33769 773.503224 507.773673 773.985623 489.209656 773.720436 477.395006 760.29983 469.621915L385.686497 252.409794Z" p-id="32319" fill="#707070"></path><path d="M527.384824 960.764003 496.354521 960.764003C118.622642 958.212467 61.495855 836.652195 61.495855 502.290572 61.495855 177.536588 132.865552 63.000918 496.354521 63.000918L527.384824 63.000918C890.873794 63.000918 962.243491 177.536588 962.243491 502.290572 962.243491 836.652195 905.116703 958.212467 527.384824 960.764003M496.354521 0C91.874521 0-0.006206 140.854303-0.006206 502.227571-0.006206 863.616588 70.711855 1021.213384 498.200824 1023.938175L525.538521 1023.938175C953.027491 1021.213384 1023.745552 863.616588 1023.745552 502.227571 1023.745552 140.854303 931.864824 0 527.384824 0L496.354521 0Z" p-id="32320" fill="#707070"></path></svg>