<?xml version="1.0" standalone="no"?><!DOCTYPE svg PUBLIC "-//W3C//DTD SVG 1.1//EN" "http://www.w3.org/Graphics/SVG/1.1/DTD/svg11.dtd"><svg t="1547773633653" class="icon" style="" viewBox="0 0 1024 1024" version="1.1" xmlns="http://www.w3.org/2000/svg" p-id="15404" xmlns:xlink="http://www.w3.org/1999/xlink" width="32" height="32"><defs><style type="text/css"></style></defs><path d="M304.64 509.44c0 52.48-42.24 94.72-94.72 94.72-52.48 0-94.72-42.24-94.72-94.72 0-52.48 42.24-94.72 94.72-94.72 52.48 0 94.72 42.24 94.72 94.72z m0 0" fill="#515151" p-id="15405"></path><path d="M613.12 503.04c0 52.48-42.24 94.72-94.72 94.72-52.48 0-94.72-42.24-94.72-94.72 0-52.48 42.24-94.72 94.72-94.72 51.2-1.28 94.72 42.24 94.72 94.72z m0 0M907.52 503.04c0 52.48-42.24 94.72-94.72 94.72-52.48 0-94.72-42.24-94.72-94.72 0-52.48 42.24-94.72 94.72-94.72 51.2-1.28 94.72 42.24 94.72 94.72z m0 0" fill="#515151" p-id="15406"></path></svg>