<?xml version="1.0" standalone="no"?><!DOCTYPE svg PUBLIC "-//W3C//DTD SVG 1.1//EN" "http://www.w3.org/Graphics/SVG/1.1/DTD/svg11.dtd"><svg t="1547773762055" class="icon" style="" viewBox="0 0 1024 1024" version="1.1" xmlns="http://www.w3.org/2000/svg" p-id="16279" xmlns:xlink="http://www.w3.org/1999/xlink" width="32" height="32"><defs><style type="text/css"></style></defs><path d="M700.221879 448.570139L427.893099 277.315596c-14.230669-8.027557-28.461337-12.162965-42.448747-12.162965-38.313339 0-65.071861 30.285782-65.071861 73.464307v341.657679c0 43.300154 26.758522 73.464307 65.071861 73.464307 13.987409 0 28.461337-4.257038 43.665043-12.892743l270.504336-170.159876c26.150374-14.960447 40.502673-36.732153 40.502672-61.301342-0.243259-24.2043-14.717187-46.340896-39.894524-60.814824z m-47.678822 88.181494l-229.880033 144.617651c-7.905927 4.500297-15.446965 6.81126-22.258225 6.81126-19.460744 0-26.393633-17.27141-26.393634-33.569783V364.159164c0-16.176743 6.93289-33.569783 26.393634-33.569783 6.81126 0 14.109039 2.189334 21.285188 6.203112l231.217959 145.469058 0.608149 0.364889c7.297779 4.135408 19.460744 13.136002 19.460743 26.758523s-12.406224 22.744744-20.433781 27.36667z" p-id="16280" fill="#ffffff"></path></svg>