<?xml version="1.0" standalone="no"?><!DOCTYPE svg PUBLIC "-//W3C//DTD SVG 1.1//EN" "http://www.w3.org/Graphics/SVG/1.1/DTD/svg11.dtd"><svg t="1547772794550" class="icon" style="" viewBox="0 0 1024 1024" version="1.1" xmlns="http://www.w3.org/2000/svg" p-id="14512" xmlns:xlink="http://www.w3.org/1999/xlink" width="32" height="32"><defs><style type="text/css"></style></defs><path d="M881.200178 355.267353c-35.011398-9.197476-117.434619-9.087982-237.936087-12.263301 5.721305-26.307156 7.008624-50.013067 7.008624-92.113931 0-100.57258-73.253374-189.155081-138.075729-189.155081-45.77044 0-83.519182 37.420261-84.093257 83.449597-0.629333 56.431244-18.067494 153.939021-112.124683 203.375967-6.898107 3.640923-26.634614 13.359262-29.509081 14.645558l1.477654 1.258667c-14.727423-12.687974-35.120892-22.419616-56.06183-22.419616l-84.093257 0c-46.37112 0-84.093257 37.734416-84.093257 84.093257l0 448.512037c0 46.37112 37.722136 84.093257 84.093257 84.093257l84.093257 0c33.368992 0 61.263295-20.146852 74.786287-48.397267 0.328481 0.109494 0.930185 0.274246 1.313925 0.328481 1.861394 0.49221 4.024663 1.040702 6.706749 1.7519 0.49221 0.10847 0.766456 0.163729 1.286296 0.328481 16.150842 3.996011 47.220465 11.44261 113.657596 26.716478 14.261818 3.229554 89.458451 19.270902 167.447686 19.270902l153.212474 0c46.728254 0 81.356936-17.422811 100.408851-54.036707 18.619056-32.592302 110.080118-207.147874 109.989043-453.16501C960.682417 416.133605 936.1947 370.980219 881.200178 355.267353zM259.917216 874.650507c0 15.493879-12.537548 28.031427-28.031427 28.031427l-84.093257 0c-15.493879 0-28.031427-12.537548-28.031427-28.031427L119.761106 426.13847c0-15.493879 12.537548-28.0171 28.031427-28.0171l84.093257 0c15.493879 0 28.031427 12.523221 28.031427 28.0171L259.917216 874.650507zM904.00251 469.170542c-11.688203 281.721313-102.680591 409.038-102.680591 409.038-8.485255 15.274892-22.11774 24.472368-51.025117 24.472368L597.084329 902.68091c-77.003791 0-153.35062-17.464767-155.321508-17.902742-116.449175-26.826995-122.58185-28.906353-129.890302-30.986735l4.106528-411.858232c0-42.608423 0.957815-31.850405 0-31.31624 128.056538-53.023634 167.036317-169.30908 168.186514-264.789689 0.164752-13.413498 10.511401-28.031427 28.031427-28.031427 29.646204 0 82.012875 59.483766 82.012875 133.093251 0 66.464761-2.65548 77.961606-25.950022 147.232273 280.311197 0 278.340309 4.010337 303.086923 10.498098 30.659277 8.759501 33.286104 34.163077 33.286104 42.922578C904.631844 461.149868 904.359644 459.754079 904.00251 469.170542z" p-id="14513" fill="#515151"></path></svg>