<?xml version="1.0" standalone="no"?><!DOCTYPE svg PUBLIC "-//W3C//DTD SVG 1.1//EN" "http://www.w3.org/Graphics/SVG/1.1/DTD/svg11.dtd"><svg t="1547772450935" class="icon" style="" viewBox="0 0 1024 1024" version="1.1" xmlns="http://www.w3.org/2000/svg" p-id="8829" xmlns:xlink="http://www.w3.org/1999/xlink" width="32" height="32"><defs><style type="text/css"></style></defs><path d="M806.4 166.4H217.6c-25.6 0-51.2 6.4-70.4 25.6-12.8 19.2-19.2 38.4-19.2 64v435.2c0 51.2 38.4 89.6 89.6 89.6h217.6c12.8 0 25.6-12.8 25.6-25.6s-12.8-25.6-25.6-25.6H217.6c-19.2 0-38.4-19.2-38.4-38.4V256c0-6.4 6.4-19.2 6.4-25.6 6.4-12.8 19.2-12.8 32-12.8h595.2c19.2 0 38.4 19.2 38.4 38.4v435.2c0 19.2-19.2 38.4-38.4 38.4H595.2c-6.4 0-12.8 0-19.2 6.4l-83.2 83.2c-12.8 12.8-12.8 25.6 0 38.4 6.4 6.4 12.8 6.4 19.2 6.4s12.8 0 19.2-6.4l76.8-76.8h204.8c51.2 0 89.6-38.4 89.6-89.6V256c-6.4-51.2-44.8-89.6-96-89.6z" p-id="8830" fill="#515151"></path><path d="M345.6 422.4h332.8c12.8 0 25.6-12.8 25.6-25.6s-12.8-25.6-25.6-25.6H345.6c-12.8 0-25.6 12.8-25.6 25.6s12.8 25.6 25.6 25.6zM345.6 569.6h332.8c12.8 0 25.6-12.8 25.6-25.6s-12.8-25.6-25.6-25.6H345.6c-12.8 0-25.6 12.8-25.6 25.6s12.8 25.6 25.6 25.6z" p-id="8831" fill="#515151"></path></svg>