<?xml version="1.0" standalone="no"?><!DOCTYPE svg PUBLIC "-//W3C//DTD SVG 1.1//EN" "http://www.w3.org/Graphics/SVG/1.1/DTD/svg11.dtd"><svg t="1547731965081" class="icon" style="" viewBox="0 0 1024 1024" version="1.1" xmlns="http://www.w3.org/2000/svg" p-id="64115" xmlns:xlink="http://www.w3.org/1999/xlink" width="32" height="32"><defs><style type="text/css"></style></defs><path d="M951.166354 597.465013c1.173834-17.426913 1.787839-35.413655 1.787839-53.960224 0-102.177694-41.68012-199.678113-117.329176-274.550633-54.628407-54.050519-123.902644-92.859262-199.533641-113.19367-0.307003-0.108354-0.595946-0.270885-0.921008-0.343121-105.446369-25.228391-236.157247-15.422367-283.688475-29.83343-53.779635-16.325316-94.159508-48.668944-123.505347-98.90902-17.444972-29.85149-39.874222-27.576058-48.687003-25.210332-39.278276 10.492266-57.265017 80.940337-57.680373 146.133245a389.893322 389.893322 0 0 0 34.582941 163.054507 22.700135 22.700135 0 0 0-7.024942 6.212288c-50.836021 68.353229-77.70778 149.74504-77.707779 235.380711 0 15.386249 0.559828 30.447436 1.679484 45.219679-49.896954 15.729369-81.283457 67.63087-71.134311 120.868736a104.922659 104.922659 0 0 0 44.569556 67.883696 102.105458 102.105458 0 0 0 77.382718 15.639074 22.754311 22.754311 0 0 0 8.596073-3.665972 362.100555 362.100555 0 0 0 56.813543 72.994386c40.253461 39.838104 89.735059 70.213304 147.072312 90.276828 52.786391 18.456275 111.044652 27.810825 173.330064 27.810826l6.555409-0.036118c187.054888-1.95037 314.569327-65.192908 381.44172-188.535724 1.715603 0.758477 3.521501 1.318305 5.453812 1.643367a102.033222 102.033222 0 0 0 76.822889-18.02286 105.049071 105.049071 0 0 0 42.510833-69.22006c8.379366-52.389093-22.934901-102.213812-71.387138-117.636179zM172.896665 91.795588c4.605039-22.176424 10.979858-35.792893 15.476544-42.330243l0.162531 0.270885c79.838739 136.670341 214.21559 135.947982 303.119935 135.478448 5.345457-0.036118 103.170938 6.934647 129.464809 13.779 43.847197 18.582688 76.245002 46.808869 93.726093 81.698813 15.801605 31.476798 18.293744 66.709862 7.006883 99.216022-14.067943 40.578522-47.603464 72.705443-94.430393 90.511595-56.795484 21.562419-129.825988 20.876178-211.19974-1.968429-187.632775-52.732214-234.315231-191.443219-245.421503-269.403824-5.309339-37.219552-4.550862-75.305936 2.094841-107.252267z m-100.769093 656.516063a59.414036 59.414036 0 0 1-25.210333-38.537857c-5.200985-27.269056 8.505778-53.815753 31.711565-65.391557 6.555409 40.704935 17.643621 78.59267 33.029869 113.19367a56.578776 56.578776 0 0 1-39.531101-9.264256z m722.503567 109.798583c-63.639836 55.404943-157.456224 84.136776-278.794493 85.400904-121.934215 1.191893-223.75073-34.980239-294.343272-104.832364-69.238119-68.533819-104.344771-164.914581-104.344772-286.451499 0-71.928907 21.436006-140.444667 62.086765-198.919636 49.138477 77.491072 124.697239 131.017881 224.61756 159.099591 45.851744 12.89411 89.698941 19.341165 130.349699 19.341165 39.91034 0 76.768713-6.230347 109.455462-18.636865 59.68492-22.664017 102.77364-64.651139 121.374387-118.250184 15.151482-43.648548 12.117574-90.76442-8.469661-132.914073a382.994792 382.994792 0 0 1 46.935282 39.476924c66.908511 66.22227 103.748825 152.183002 103.748825 242.062533 0 143.713342-37.887735 249.593126-112.615782 314.623504z m182.811028-150.250692a59.612684 59.612684 0 0 1-24.072617 39.350512 56.885779 56.885779 0 0 1-35.774835 10.76315c13.345584-34.023113 22.934901-71.784435 28.731833-113.229788 22.031952 11.467451 35.341419 36.713901 31.115619 63.116126z" p-id="64116" fill="#bfbfbf"></path><path d="M335.228813 617.709127c-47.874349 0-86.845622 39.531101-86.845622 88.12781a22.862665 22.862665 0 0 0 45.707272 0c0-23.386376 18.456275-42.438597 41.13835-42.438597s41.120291 19.052221 41.120292 42.438597a22.844606 22.844606 0 1 0 45.707271 0c0-48.596708-38.971273-88.12781-86.827563-88.12781zM705.690675 617.709127c-47.85629 0-86.827563 39.531101-86.827563 88.12781a22.862665 22.862665 0 1 0 45.707271 0c0-23.386376 18.438216-42.438597 41.120292-42.438597s41.120291 19.052221 41.120291 42.438597a22.862665 22.862665 0 0 0 45.725331 0c-0.018059-48.596708-38.971273-88.12781-86.845622-88.12781z" p-id="64117" fill="#bfbfbf"></path></svg>