<?xml version="1.0" standalone="no"?><!DOCTYPE svg PUBLIC "-//W3C//DTD SVG 1.1//EN" "http://www.w3.org/Graphics/SVG/1.1/DTD/svg11.dtd"><svg t="1547731170794" class="icon" style="" viewBox="0 0 1024 1024" version="1.1" xmlns="http://www.w3.org/2000/svg" p-id="29564" xmlns:xlink="http://www.w3.org/1999/xlink" width="32" height="32"><defs><style type="text/css"></style></defs><path d="M423.3728 761.1904c0-151.6544 116.224-274.7904 264.0896-288.8704a280.8832 280.8832 0 0 0 64.2048-179.8144c0-149.6576-111.4624-270.9504-248.9856-270.9504s-248.9856 121.344-248.9856 270.9504c0 71.936 26.2144 136.9088 68.2496 185.4464l-0.4608 0.1024 1.0752 0.7168c14.3872 16.5376 30.6688 30.7712 48.4352 42.8544 41.7792 44.544 78.7968 111.5648-33.8944 144.5376l-0.1024 0.0512c-174.4896 24.4224-303.0528 106.7008-303.0528 204.8512 0 58.6752 73.1648 116.992 134.2976 119.9104 61.0816 2.9184 283.2896 21.1456 424.7552 4.5568-128.768-30.208-169.6256-96.3072-169.6256-234.3424z" p-id="29565" fill="#8a8a8a"></path><path d="M716.3904 526.8992a234.3424 234.3424 0 1 0 0 468.736 234.3424 234.3424 0 0 0 0-468.736z m146.6368 184.576l-113.5616 182.7328c-3.2256 6.4512-10.9568 12.5952-20.48 15.5136a44.4416 44.4416 0 0 1-12.6464 1.8432c-14.4384 0-27.3408-6.9632-33.5872-18.0736l-112.4352-181.4528a28.3648 28.3648 0 0 1-2.6112-24.9344 35.328 35.328 0 0 1 22.9376-20.8384 41.216 41.216 0 0 1 13.0048-2.048c14.08 0 27.2384 7.1168 33.4336 18.0736l79.36 125.4912 78.9504-126.1568c6.656-10.6496 20.0192-17.408 33.9456-17.408 4.7616 0 9.4208 0.768 13.7728 2.2528a34.4064 34.4064 0 0 1 21.7088 19.8144 29.2352 29.2352 0 0 1-1.792 25.1904z" p-id="29566" fill="#8a8a8a"></path></svg>