<?xml version="1.0" standalone="no"?><!DOCTYPE svg PUBLIC "-//W3C//DTD SVG 1.1//EN" "http://www.w3.org/Graphics/SVG/1.1/DTD/svg11.dtd"><svg t="1547732065023" class="icon" style="" viewBox="0 0 1024 1024" version="1.1" xmlns="http://www.w3.org/2000/svg" p-id="66899" xmlns:xlink="http://www.w3.org/1999/xlink" width="32" height="32"><defs><style type="text/css"></style></defs><path d="M212.10079766 962C129.43399941 961.91 62.0972 894.57680058 62 811.90760205V212.10200967C62.0972 129.43641113 129.42799912 62.09841201 212.09359766 62.00001231h299.90519648c19.17839971 0 34.78199941 15.6024 34.78199942 34.78199941 0 19.17959942-15.60359971 34.78319912-34.78199942 34.78319912H212.10079766c-44.40959912 0-80.54039883 36.12839942-80.54039883 80.53679883V811.84400175c0 44.44079942 36.12959912 80.59559854 80.54039883 80.59559942H811.84399033c44.44079942 0 80.59559854-36.12959912 80.59559853-80.54039883V571.29680498c0-19.17839971 15.60119941-34.78199941 34.77719971-34.78199941 19.17959942 0 34.78199941 15.60359971 34.78199942 34.78199941v240.60239736c-0.09479971 82.67159883-67.42799912 150.00959795-150.09359766 150.10079766h0.00599941-599.81039208z" p-id="66900" fill="#bfbfbf"></path><path d="M386.28199531 718.51760352a34.58759941 34.58759941 0 0 1-34.47599941-31.05c-0.79319971-7.4592-17.95439971-184.11839737 108.86279853-324.49679561 85.47599883-94.64399912 214.45799677-148.88519824 383.36279502-161.21999795l9.34800029-0.6815997-69.9599997-81.67319913c-12.4632-14.57759971-10.7496-36.58199941 3.8232-49.04759883A34.79759912 34.79759912 0 0 1 809.83758974 62.00001231a34.75439912 34.75439912 0 0 1 26.44679971 12.17519912L953.6479877 211.13600996c8.7948 10.28040029 10.82400029 24.86999971 5.16360058 37.16399971-5.6592 12.2904-18.05999942 20.232-31.5936 20.232h-5.59199971c-186.75839795 0-324.3335959 47.27279971-408.90599472 140.50319765-105.59759854 116.39279883-91.91279883 269.60879619-91.76279854 271.1423962 1.94280029 19.02479942-11.93519971 36.14759912-30.93599971 38.1875994-1.36559971 0.1512-2.6028 0.1512-3.69479971 0.1512h-0.04440058z" p-id="66901" fill="#bfbfbf"></path><path d="M809.79199033 425.04200703c-13.23959941 0-25.1532-7.3548-31.0907997-19.19399941-5.94600029-11.86799942-4.69320029-25.83839971 3.2699997-36.45599942l117.36719824-156.50879853c6.53879971-8.72759971 16.9596-13.93679971 27.8748-13.93679971 7.56839971 0 14.77559971 2.40360029 20.84519971 6.9504003 7.43879971 5.5728 12.26399941 13.70759941 13.58399971 22.91039912 1.32000029 9.20279971-1.02359971 18.36839971-6.5976003 25.8084L837.67398945 411.12800703c-6.53159971 8.71319971-16.93319941 13.91519971-27.82559971 13.91519971h-0.05639941z" p-id="66902" fill="#bfbfbf"></path></svg>