<?xml version="1.0" standalone="no"?><!DOCTYPE svg PUBLIC "-//W3C//DTD SVG 1.1//EN" "http://www.w3.org/Graphics/SVG/1.1/DTD/svg11.dtd"><svg t="1547731623733" class="icon" style="" viewBox="0 0 1024 1024" version="1.1" xmlns="http://www.w3.org/2000/svg" p-id="43918" xmlns:xlink="http://www.w3.org/1999/xlink" width="32" height="32"><defs><style type="text/css"></style></defs><path d="M179.3346875 264.96265625c0-45.8240625 37.14609375-82.97015625 82.97015625-82.97015625L412.6484375 181.9925l0-36.25171875L253.88421875 145.74078125c-61.0875 0-110.615625 49.52390625-110.615625 110.61984375l0 159.80625 36.061875 0L179.33046875 264.96265625 179.3346875 264.96265625z" fill="#bfbfbf" p-id="43919"></path><path d="M843.104375 264.96265625l0 151.2 37.61859375 0 0-159.80625c0-61.09171875-49.52390625-110.61984375-110.615625-110.61984375l-161.18578125 0 0 36.25171875 151.2084375 0C805.95828125 181.9925 843.104375 219.1428125 843.104375 264.96265625L843.104375 264.96265625z" fill="#bfbfbf" p-id="43920"></path><path d="M179.92953125 764.0534375l0-151.20421875-36.061875 0 0 159.81046875c0 61.0875 49.52390625 110.615625 110.61984375 110.615625l158.76 0 0-36.2559375L262.90390625 847.019375C217.075625 847.019375 179.92953125 809.87328125 179.92953125 764.0534375L179.92953125 764.0534375z" fill="#bfbfbf" p-id="43921"></path><path d="M843.7034375 764.0534375c0 45.81984375-37.1503125 82.9659375-82.97015625 82.9659375l-151.20421875 0 0 36.2559375 161.17734375 0c61.09171875 0 110.61984375-49.52390625 110.61984375-110.615625l0-159.81046875-37.6228125 0L843.7034375 764.0534375 843.7034375 764.0534375z" fill="#bfbfbf" p-id="43922"></path><path d="M885.09359375 500.5334375L138.90640625 500.5334375c-10.935 0-19.79859375 8.8678125-19.79859375 19.79859375 0 10.93921875 8.8678125 19.8028125 19.79859375 19.8028125l746.1871875 0c10.935 0 19.79859375-8.8678125 19.79859375-19.8028125C904.8921875 509.40125 896.024375 500.5334375 885.09359375 500.5334375L885.09359375 500.5334375z" fill="#bfbfbf" p-id="43923"></path></svg>