<?xml version="1.0" standalone="no"?><!DOCTYPE svg PUBLIC "-//W3C//DTD SVG 1.1//EN" "http://www.w3.org/Graphics/SVG/1.1/DTD/svg11.dtd"><svg t="1547731661388" class="icon" style="" viewBox="0 0 1024 1024" version="1.1" xmlns="http://www.w3.org/2000/svg" p-id="44948" xmlns:xlink="http://www.w3.org/1999/xlink" width="32" height="32"><defs><style type="text/css"></style></defs><path d="M954.4 403.5L726.1 135.8c-6.5-7.6-17.8-8.5-25.4-2-1.3 1.1-2.4 2.4-3.3 3.7-1.3 1.4-2.3 3.1-3.1 4.9C664.2 215.1 592.7 262 512.1 262c-80.5 0-152.1-46.9-182.2-119.6-0.5-1.2-1.1-2.3-1.8-3.3-1-2-2.4-3.8-4.2-5.3-7.5-6.5-18.9-5.6-25.4 1.9L68.1 403.4c-5.5 6.4-5.8 15.8-0.7 22.6l98.4 130.5c3.4 4.5 8.7 7.2 14.4 7.2h48.4v312.1c0 9.9 8.1 18 18 18h529.5c9.9 0 18-8.1 18-18V564.4l48.6-0.8c5.5-0.1 10.7-2.7 14.1-7.2L955.1 426c5.1-6.7 4.8-16.1-0.7-22.5zM833.3 527.8l-39.2 0.6v-49.3c0-9.9-8.1-18-18-18s-18 8.1-18 18v378.7H264.6V479.1c0-9.9-8.1-18-18-18s-18 8.1-18 18v48.6h-39.5L104.9 416l203.2-236.1C348.5 252.4 426 298 512.1 298c86.2 0 163.7-45.7 204.1-118.3l201.4 236.1-84.3 112z" p-id="44949" fill="#bfbfbf"></path></svg>