<?xml version="1.0" standalone="no"?><!DOCTYPE svg PUBLIC "-//W3C//DTD SVG 1.1//EN" "http://www.w3.org/Graphics/SVG/1.1/DTD/svg11.dtd"><svg t="1547735784491" class="icon" style="" viewBox="0 0 1024 1024" version="1.1" xmlns="http://www.w3.org/2000/svg" p-id="68663" xmlns:xlink="http://www.w3.org/1999/xlink" width="32" height="32"><defs><style type="text/css"></style></defs><path d="M888.45 539.339c0.192-0.388 0.375-0.778 0.561-1.169 0.307-0.647 0.607-1.294 0.891-1.946 0.093-0.217 0.183-0.436 0.274-0.654 0.35-0.826 0.683-1.653 0.996-2.488l0.022-0.056a65.45 65.45 0 0 0 4.148-21.52c0.013-0.505 0.002-1.01 0.003-1.515 0-0.503 0.01-1.009-0.003-1.513a65.398 65.398 0 0 0-5.17-24.077c-0.09-0.211-0.175-0.423-0.267-0.635a66.205 66.205 0 0 0-0.899-1.966c-0.182-0.384-0.362-0.767-0.55-1.147a69.943 69.943 0 0 0-0.792-1.53 76.204 76.204 0 0 0-0.817-1.504c-0.112-0.199-0.212-0.4-0.326-0.598-0.132-0.227-0.275-0.443-0.408-0.667a64.237 64.237 0 0 0-3.701-5.583 53.669 53.669 0 0 0-0.913-1.2c-0.388-0.503-0.782-1-1.182-1.49-0.24-0.29-0.485-0.578-0.732-0.866a67.277 67.277 0 0 0-1.508-1.718c-0.16-0.174-0.322-0.345-0.484-0.518a64.318 64.318 0 0 0-1.893-1.95c-0.066-0.064-0.134-0.128-0.2-0.194a65.527 65.527 0 0 0-14.572-10.766L271.143 111.558c-0.051-0.029-0.103-0.054-0.153-0.083a65.238 65.238 0 0 0-2.75-1.495c-0.051-0.028-0.105-0.054-0.158-0.082a65.3 65.3 0 0 0-2.842-1.365c-0.064-0.03-0.128-0.058-0.193-0.087a66 66 0 0 0-5.745-2.25c-0.192-0.065-0.38-0.13-0.57-0.193-0.789-0.258-1.584-0.5-2.385-0.728-0.285-0.082-0.571-0.166-0.857-0.244-0.698-0.19-1.4-0.363-2.104-0.531-0.395-0.093-0.788-0.186-1.185-0.273a62.3 62.3 0 0 0-1.821-0.364 67.991 67.991 0 0 0-1.492-0.267 67.342 67.342 0 0 0-1.578-0.234 64.236 64.236 0 0 0-1.755-0.223 70.804 70.804 0 0 0-3.319-0.286c-0.452-0.027-0.905-0.05-1.358-0.067a62.468 62.468 0 0 0-1.906-0.048c-0.267-0.003-0.53-0.02-0.797-0.02-0.233 0-0.463 0.015-0.695 0.017-0.538 0.006-1.076 0.021-1.615 0.04-0.622 0.022-1.244 0.049-1.861 0.087-0.35 0.022-0.697 0.052-1.046 0.08-0.807 0.064-1.61 0.137-2.41 0.229-0.106 0.012-0.21 0.027-0.318 0.04a65.533 65.533 0 0 0-29.174 10.951c-0.14 0.095-0.275 0.198-0.41 0.294-0.708 0.49-1.412 0.987-2.097 1.504-0.385 0.289-0.756 0.595-1.134 0.891-0.441 0.347-0.885 0.689-1.318 1.047-0.457 0.38-0.9 0.777-1.348 1.169-0.349 0.306-0.703 0.605-1.045 0.918-0.429 0.392-0.845 0.8-1.264 1.204-0.358 0.345-0.718 0.685-1.068 1.038-0.348 0.35-0.685 0.714-1.022 1.073-0.42 0.442-0.84 0.883-1.247 1.336-0.242 0.27-0.477 0.551-0.715 0.825a63.43 63.43 0 0 0-1.478 1.754c-0.135 0.168-0.266 0.34-0.4 0.509a67.29 67.29 0 0 0-1.704 2.242l-0.107 0.15c-7.821 10.837-12.441 24.134-12.441 38.519v682.717c0 0.269 0.017 0.533 0.021 0.801a66.596 66.596 0 0 0 0.12 3.303 72.875 72.875 0 0 0 0.29 3.358 78.35 78.35 0 0 0 0.468 3.362c0.066 0.393 0.14 0.786 0.211 1.177 0.134 0.726 0.277 1.45 0.434 2.17 0.058 0.26 0.119 0.52 0.18 0.781 0.198 0.852 0.41 1.698 0.64 2.537 0.034 0.125 0.071 0.252 0.107 0.379 0.274 0.974 0.568 1.94 0.885 2.896l0.007 0.021a65.694 65.694 0 0 0 9.098 17.762c0.024 0.036 0.05 0.07 0.074 0.104a64.698 64.698 0 0 0 1.744 2.294c0.12 0.152 0.237 0.308 0.36 0.458a64.362 64.362 0 0 0 1.527 1.812c0.222 0.257 0.44 0.516 0.665 0.768 0.426 0.476 0.867 0.939 1.308 1.404 0.32 0.334 0.634 0.677 0.96 1.005 0.374 0.38 0.763 0.746 1.148 1.117 0.394 0.378 0.783 0.76 1.183 1.127 0.376 0.345 0.766 0.676 1.152 1.013 0.411 0.36 0.82 0.725 1.24 1.073 0.48 0.398 0.971 0.778 1.462 1.162 0.33 0.258 0.653 0.527 0.988 0.778a68.139 68.139 0 0 0 2.277 1.634c0.078 0.055 0.153 0.111 0.233 0.165a65.558 65.558 0 0 0 29.248 10.972c0.077 0.008 0.153 0.02 0.233 0.029 0.822 0.096 1.651 0.17 2.486 0.235 0.322 0.025 0.646 0.053 0.97 0.074 0.64 0.04 1.284 0.066 1.93 0.09 0.515 0.018 1.03 0.033 1.547 0.039 0.241 0.002 0.48 0.018 0.723 0.018 0.277 0 0.554-0.017 0.832-0.021a65.274 65.274 0 0 0 5.11-0.26 57.884 57.884 0 0 0 3.164-0.361 61.837 61.837 0 0 0 1.63-0.242c0.483-0.08 0.964-0.168 1.446-0.258a66.94 66.94 0 0 0 1.867-0.373c0.38-0.084 0.758-0.174 1.138-0.263a65.641 65.641 0 0 0 2.144-0.54c0.276-0.075 0.548-0.155 0.825-0.235a64.583 64.583 0 0 0 2.416-0.739c0.18-0.06 0.36-0.12 0.539-0.183a63.09 63.09 0 0 0 2.965-1.083c0.947-0.37 1.882-0.763 2.805-1.175 0.06-0.025 0.118-0.053 0.176-0.08a65.464 65.464 0 0 0 2.86-1.372l0.148-0.075c0.932-0.48 1.851-0.98 2.758-1.502 0.049-0.028 0.098-0.053 0.148-0.081l589.806-340.524a65.505 65.505 0 0 0 14.525-10.73c0.08-0.078 0.163-0.156 0.241-0.235a62.88 62.88 0 0 0 1.855-1.91c0.175-0.186 0.349-0.37 0.52-0.558 0.502-0.55 0.993-1.111 1.477-1.682 0.255-0.299 0.51-0.598 0.76-0.902 0.392-0.477 0.778-0.965 1.157-1.456a58.483 58.483 0 0 0 1.852-2.506 63.14 63.14 0 0 0 2.784-4.309c0.131-0.22 0.273-0.43 0.4-0.655 0.112-0.192 0.21-0.39 0.32-0.584 0.284-0.506 0.562-1.016 0.832-1.529 0.26-0.501 0.522-1.003 0.773-1.508z" fill="#ffffff" p-id="68664"></path></svg>