<?xml version="1.0" standalone="no"?><!DOCTYPE svg PUBLIC "-//W3C//DTD SVG 1.1//EN" "http://www.w3.org/Graphics/SVG/1.1/DTD/svg11.dtd"><svg t="1547731893669" class="icon" style="" viewBox="0 0 1024 1024" version="1.1" xmlns="http://www.w3.org/2000/svg" p-id="62101" xmlns:xlink="http://www.w3.org/1999/xlink" width="32" height="32"><defs><style type="text/css"></style></defs><path d="M921.6 883.2H102.4l-5.12-2.56c-35.84-17.92-61.44-46.08-76.8-89.6-35.84-99.84 7.68-240.64 25.6-279.04 38.4-76.8 230.4-391.68 240.64-407.04l7.68-12.8h432.64l7.68 12.8c10.24 15.36 202.24 330.24 240.64 407.04 20.48 38.4 61.44 179.2 25.6 279.04-15.36 40.96-40.96 71.68-76.8 89.6l-2.56 2.56z m-806.4-51.2h793.6c20.48-12.8 35.84-30.72 46.08-56.32 28.16-79.36-5.12-202.24-23.04-240.64C896 468.48 737.28 204.8 698.88 145.92H325.12C286.72 204.8 128 468.48 94.72 535.04c-17.92 38.4-51.2 161.28-23.04 240.64 7.68 25.6 23.04 43.52 43.52 56.32z" p-id="62102" fill="#bfbfbf"></path><path d="M509.44 455.68c-240.64 0-465.92-66.56-473.6-69.12-12.8-5.12-20.48-17.92-17.92-30.72 5.12-15.36 17.92-23.04 33.28-17.92 2.56 0 227.84 66.56 460.8 66.56s460.8-58.88 463.36-58.88c12.8-2.56 28.16 5.12 30.72 17.92 2.56 12.8-5.12 28.16-17.92 30.72-10.24 0-238.08 61.44-478.72 61.44zM227.84 650.24H158.72c-15.36 0-25.6 10.24-25.6 25.6s10.24 25.6 25.6 25.6H230.4c15.36 0 25.6-10.24 25.6-25.6s-12.8-25.6-28.16-25.6zM865.28 650.24H793.6c-15.36 0-25.6 10.24-25.6 25.6s10.24 25.6 25.6 25.6h71.68c15.36 0 25.6-10.24 25.6-25.6s-10.24-25.6-25.6-25.6zM611.84 701.44h-199.68c-15.36 0-25.6-10.24-25.6-25.6s10.24-25.6 25.6-25.6h199.68c15.36 0 25.6 10.24 25.6 25.6s-12.8 25.6-25.6 25.6zM230.4 944.64H140.8c-17.92 0-33.28-15.36-33.28-33.28v-43.52c0-17.92 15.36-33.28 33.28-33.28H230.4c17.92 0 33.28 15.36 33.28 33.28v43.52c0 17.92-15.36 33.28-33.28 33.28zM883.2 944.64H793.6c-17.92 0-33.28-15.36-33.28-33.28v-43.52c0-17.92 15.36-33.28 33.28-33.28h89.6c17.92 0 33.28 15.36 33.28 33.28v43.52c0 17.92-15.36 33.28-33.28 33.28z" p-id="62103" fill="#bfbfbf"></path></svg>