<?xml version="1.0" standalone="no"?><!DOCTYPE svg PUBLIC "-//W3C//DTD SVG 1.1//EN" "http://www.w3.org/Graphics/SVG/1.1/DTD/svg11.dtd"><svg t="1547731775291" class="icon" style="" viewBox="0 0 1024 1024" version="1.1" xmlns="http://www.w3.org/2000/svg" p-id="51812" xmlns:xlink="http://www.w3.org/1999/xlink" width="32" height="32"><defs><style type="text/css"></style></defs><path d="M486.4 0C288 0 115.2 172.8 115.2 384c0 115.2 115.2 288 211.2 422.4 6.4 6.4 12.8 12.8 19.2 12.8l275.2 0c6.4 0 12.8-6.4 19.2-12.8 96-134.4 211.2-307.2 211.2-422.4C851.2 172.8 684.8 0 486.4 0zM608 768 364.8 768c-83.2-121.6-192-288-192-384 0-179.2 147.2-332.8 320-332.8s320 153.6 320 332.8C806.4 480 697.6 646.4 608 768zM595.2 864 371.2 864c-12.8 0-25.6 12.8-25.6 25.6 0 12.8 12.8 25.6 25.6 25.6l224 0c12.8 0 25.6-12.8 25.6-25.6C620.8 876.8 608 864 595.2 864zM595.2 947.2 371.2 947.2c-12.8 0-25.6 12.8-25.6 25.6s12.8 25.6 25.6 25.6l70.4 0C448 1017.6 486.4 1024 486.4 1024s38.4-6.4 38.4-25.6l70.4 0c12.8 0 25.6-12.8 25.6-25.6S608 947.2 595.2 947.2z" p-id="51813" fill="#bfbfbf"></path></svg>