<?xml version="1.0" standalone="no"?><!DOCTYPE svg PUBLIC "-//W3C//DTD SVG 1.1//EN" "http://www.w3.org/Graphics/SVG/1.1/DTD/svg11.dtd"><svg t="1547731192527" class="icon" style="" viewBox="0 0 1024 1024" version="1.1" xmlns="http://www.w3.org/2000/svg" p-id="30464" xmlns:xlink="http://www.w3.org/1999/xlink" width="32" height="32"><defs><style type="text/css"></style></defs><path d="M512.270947 1.445052C229.763274 1.445052 0.722526 229.582642 0.722526 511.187158s229.040748 509.742106 511.548421 509.742106S1024 792.791674 1024 511.187158 794.959252 1.445052 512.270947 1.445052z m0 972.33939c-256.496737 0-464.403599-207.003704-464.403598-462.597284S255.774211 48.770506 512.270947 48.770506s464.764862 207.003704 464.764862 462.416652c0 255.593579-208.087493 462.597283-464.764862 462.597284z" fill="#8a8a8a" p-id="30465"></path><path d="M664.904569 661.653202h-40.642089c25.288411 61.23408 84.174281 99.166696 175.573823 114.339742v-22.940201c-74.781443-18.605045-119.758688-49.131769-134.931734-91.399541z m-440.018346 91.399541v22.940201c91.760804-15.353678 150.10478-53.466925 175.393191-114.339742H359.456694c-14.992415 42.267772-59.96966 72.794496-134.570471 91.399541z m-5.238313-95.554066h277.269359v59.96966c1.625684 27.275357-12.644205 39.919563-43.351561 38.113247h-40.642088v27.997883h53.647557c47.506086 0 71.168813-20.41136 71.168812-61.23408v-65.027341h264.625155v-47.325455H219.64791V657.498677z m63.943552-138.363733v42.809667h457.720233v-42.809667H283.591462z m-61.23408-280.340095v44.43535h184.605398v47.506086h-143.782678v141.073205h427.37414c49.131769 1.806315 72.07197-27.997883 68.820604-68.820603v-72.252602h-142.698889v-47.506086h188.218028v-44.43535H222.357382z m184.78603 197.249603h-103.14059v-69.723761h103.14059v69.723761z m171.238666 0h-133.486682v-69.723761h133.486682v69.723761z m0-105.127535h-133.486682v-47.506086h133.486682v47.506086z m142.698889 35.584406v36.668195c0 22.037044-11.018522 32.874934-33.236197 32.874934h-71.168813v-69.723761h104.40501v0.180632z" fill="#8a8a8a" p-id="30466"></path></svg>