<?xml version="1.0" standalone="no"?><!DOCTYPE svg PUBLIC "-//W3C//DTD SVG 1.1//EN" "http://www.w3.org/Graphics/SVG/1.1/DTD/svg11.dtd"><svg t="1547731595902" class="icon" style="" viewBox="0 0 1024 1024" version="1.1" xmlns="http://www.w3.org/2000/svg" p-id="42950" xmlns:xlink="http://www.w3.org/1999/xlink" width="32" height="32"><defs><style type="text/css"></style></defs><path d="M944 336.8c12 31.2 5.2 67.4-17.2 91.6-43.2 46.6-43.2 121 0 169.4 22.4 24.2 29.4 60.4 17.2 91.6-15.6 39.8-38 77.8-64 110.6-20.8 26-55.2 38-86.4 31.2-31.2-7-62.2-1.8-89.8 13.8-27.6 15.6-46.6 41.4-57 70.8-10.4 32.8-38 55.2-70.8 60.4-20.8 1.8-43.2 3.4-64 3.4-20.8 0-43.2-1.8-64-5.2-32.8-5.2-60.4-27.6-70.8-60.4-19-62.2-83-98.4-146.8-84.6-32.8 7-65.6-5.2-86.4-31.2-26-34.6-48.4-70.8-64-110.6-12-31.2-5.2-67.4 17.2-91.6 43.2-46.6 43.2-121 0-169.4-22.4-24.2-29.2-60.4-17.2-91.4 15.6-39.8 38-77.8 64-110.6 20.8-26 55.2-38 88.2-31.2 31.2 7 62.2 1.8 89.8-13.8 27.6-15.6 46.6-41.4 57-70.8 10.4-32.8 38-55.2 70.8-60.4 41.4-5.2 84.6-5.2 127.8 0 32.8 5.2 60.4 27.6 70.8 60.4 8.6 29.4 29.4 55.2 57 70.8 27.6 15.6 58.8 20.8 89.8 13.8 32.8-7 67.4 5.2 86.4 31.2 24.4 36.2 46.8 72.4 62.4 112.2z m-64 26c-13.8-32.8-32.8-65.6-55.2-93.4-3.4-5.2-10.4-7-17.2-5.2-46.6 10.4-96.8 3.4-138.2-20.8-43.2-24.2-74.2-64-88.2-110.6-1.8-7-7-12-13.8-12-36.2-5.2-72.6-5.2-108.8 0-7 1.8-12 5.2-13.8 12-13.8 46.6-45 86.4-88.2 110.6-41.4 24.2-91.6 31.2-140 20.8-7-1.8-13.8 1.8-17.2 5.2C176.8 298.8 157.8 330 144 362.8c-1.8 7-1.8 13.8 3.4 19 67.4 74.2 67.4 188.4 0 262.6-5.2 5.2-5.2 12-3.4 17.2 13.8 34.6 32.8 65.6 53.6 93.4 3.4 5.2 12 7 17.2 7 98.4-22.4 197 36.2 228 131.4 1.8 7 7 10.4 13.8 12 17.2 1.8 36.2 3.4 53.6 3.4 19 0 36.2-1.8 55.2-3.4 7-1.8 12-5.2 13.8-12 13.8-46.6 45-86.4 88.2-110.6 41.4-24.2 91.6-31.2 140-20.8 7 1.8 13.8-1.8 17.2-5.2 22.4-29.4 41.4-60.4 55.2-93.4 1.8-5.2 1.8-13.8-3.4-19-67.4-74.2-67.4-188.4 0-262.6 5.4-5.2 5.4-12.2 3.6-19zM505 685.8c-95 0-172.8-77.8-172.8-172.8s77.8-172.8 172.8-172.8 172.8 77.8 172.8 172.8-76 172.8-172.8 172.8z m0-69c57 0 103.6-46.6 103.6-103.6 0-57-46.6-103.6-103.6-103.6s-103.6 46.6-103.6 103.6c0 57 46.6 103.6 103.6 103.6z" fill="#bfbfbf" p-id="42951"></path></svg>