<?xml version="1.0" standalone="no"?><!DOCTYPE svg PUBLIC "-//W3C//DTD SVG 1.1//EN" "http://www.w3.org/Graphics/SVG/1.1/DTD/svg11.dtd"><svg t="1547727978101" class="icon" style="" viewBox="0 0 1024 1024" version="1.1" xmlns="http://www.w3.org/2000/svg" p-id="1347" xmlns:xlink="http://www.w3.org/1999/xlink" width="32" height="32"><defs><style type="text/css"></style></defs><path d="M512 472.6528C238.592 472.6528 24.4224 374.4256 24.4224 249.0112S238.592 25.3696 512 25.3696s487.5776 98.2272 487.5776 223.6416S785.408 472.6528 512 472.6528z m0-396.0832c-257.152 0-436.3776 90.88-436.3776 172.4416s179.2 172.4416 436.3776 172.4416c257.152 0 436.3776-90.88 436.3776-172.4416S769.152 76.5696 512 76.5696z" p-id="1348" fill="#d81e06"></path><path d="M512 710.7584C238.592 710.7584 24.4224 612.5056 24.4224 487.0656c0-17.28 3.9936-34.4064 11.8784-50.944a25.6 25.6 0 0 1 46.2336 22.016c-4.5824 9.6-6.912 19.328-6.912 28.928 0 81.5872 179.2 172.4928 436.3776 172.4928 257.152 0 436.3776-90.9056 436.3776-172.4672 0-9.7536-2.2784-19.2256-6.9376-28.9792a25.6 25.6 0 1 1 46.208-22.0672c7.9104 16.5632 11.9296 33.7408 11.9296 51.0464 0 125.4144-214.1696 223.6672-487.5776 223.6672z" p-id="1349" fill="#d81e06"></path><path d="M512 951.4496C238.592 951.4496 24.4224 853.1968 24.4224 727.808c0-17.2544 3.9936-34.3808 11.8784-50.9184a25.6256 25.6256 0 0 1 46.2336 22.0416c-4.6592 9.728-6.912 19.1744-6.912 28.8768 0 81.5872 179.2 172.4416 436.3776 172.4416 257.152 0 436.3776-90.88 436.3776-172.4416 0-10.3424-2.6624-20.8128-7.9872-31.104a25.6 25.6 0 1 1 45.568-23.3984 118.272 118.272 0 0 1 13.6192 54.5024c0 125.3888-214.1696 223.6416-487.5776 223.6416z" p-id="1350" fill="#d81e06"></path></svg>