<?xml version="1.0" standalone="no"?><!DOCTYPE svg PUBLIC "-//W3C//DTD SVG 1.1//EN" "http://www.w3.org/Graphics/SVG/1.1/DTD/svg11.dtd"><svg t="1547731939780" class="icon" style="" viewBox="0 0 1024 1024" version="1.1" xmlns="http://www.w3.org/2000/svg" p-id="63212" xmlns:xlink="http://www.w3.org/1999/xlink" width="32" height="32"><defs><style type="text/css"></style></defs><path d="M990.72 627.2 27.392 627.2c-9.984 0-18.688-5.632-22.016-15.104-3.072-9.472 0.256-19.456 8.192-25.344L718.592 66.56c3.84-2.816 8.704-5.12 13.568-5.12 0 0 0 0 0 0 13.056 0 125.184 2.56 166.144 62.72 12.032 17.92 22.784 48.896 4.864 93.44-39.168 98.048-11.52 132.864 30.464 185.088 5.12 6.4 10.496 13.312 15.872 20.224 9.216 11.776 17.92 22.016 26.368 31.744 36.352 41.984 64.768 74.496 36.608 157.44C1009.408 621.568 1000.704 627.2 990.72 627.2zM97.536 581.12l876.288 0c12.032-43.52-2.304-61.44-32.768-96.768-8.448-9.728-17.92-20.48-27.904-33.536-5.12-6.656-10.24-13.056-15.36-19.2-44.544-55.552-86.528-107.776-37.376-230.912 8.448-20.992 8.192-37.376-0.256-49.92-21.248-31.232-89.6-40.96-120.576-42.24L97.536 581.12z" p-id="63213" fill="#bfbfbf"></path><path d="M914.688 823.552l-814.08 0c-55.04 0-100.096-44.8-100.096-100.096l0-118.784c0-12.8 10.24-23.04 23.04-23.04l967.936 0c12.8 0 23.04 10.24 23.04 23.04l0 118.784C1014.528 778.752 969.728 823.552 914.688 823.552zM46.848 627.968l0 95.744c0 29.696 24.064 53.76 53.76 53.76l814.08 0c29.696 0 53.76-24.064 53.76-53.76l0-95.744L46.848 627.968z" p-id="63214" fill="#bfbfbf"></path><path d="M164.096 962.048l-22.272 0c-22.784 0-41.472-18.688-41.472-41.472l0-120.064c0-11.264 9.216-20.48 20.48-20.48l64.256 0c11.264 0 20.48 9.216 20.48 20.48l0 120.064C205.568 943.36 187.136 962.048 164.096 962.048zM141.312 820.992l0 99.584c0 0.256 0.256 0.512 0.512 0.512l22.272 0c0.256 0 0.512-0.256 0.512-0.512l0-99.584L141.312 820.992z" p-id="63215" fill="#bfbfbf"></path><path d="M473.344 962.048l-22.272 0c-22.784 0-41.472-18.688-41.472-41.472l0-120.064c0-11.264 9.216-20.48 20.48-20.48l64.256 0c11.264 0 20.48 9.216 20.48 20.48l0 120.064C514.816 943.36 496.128 962.048 473.344 962.048zM450.56 820.992l0 99.584c0 0.256 0.256 0.512 0.512 0.512l22.272 0c0.256 0 0.512-0.256 0.512-0.512l0-99.584L450.56 820.992z" p-id="63216" fill="#bfbfbf"></path><path d="M913.664 962.048l-22.272 0c-22.784 0-41.472-18.688-41.472-41.472l0-120.064c0-11.264 9.216-20.48 20.48-20.48l64.256 0c11.264 0 20.48 9.216 20.48 20.48l0 120.064C955.136 943.36 936.448 962.048 913.664 962.048zM890.88 820.992l0 99.584c0 0.256 0.256 0.512 0.512 0.512l22.272 0c0.256 0 0.512-0.256 0.512-0.512l0-99.584L890.88 820.992z" p-id="63217" fill="#bfbfbf"></path><path d="M708.352 609.28c-12.544 0-22.784-8.96-23.04-21.504l-5.376-323.072c-0.256-12.8 9.984-23.808 22.784-23.808 0.256 0 0.256 0 0.512 0 12.544 0 22.784 11.008 23.04 23.552l5.376 322.304c0.256 12.8-9.984 22.784-22.784 22.784C708.608 609.28 708.352 609.28 708.352 609.28z" p-id="63218" fill="#bfbfbf"></path></svg>