<?xml version="1.0" standalone="no"?><!DOCTYPE svg PUBLIC "-//W3C//DTD SVG 1.1//EN" "http://www.w3.org/Graphics/SVG/1.1/DTD/svg11.dtd"><svg t="1547628103956" class="icon" style="" viewBox="0 0 1024 1024" version="1.1" xmlns="http://www.w3.org/2000/svg" p-id="1749" xmlns:xlink="http://www.w3.org/1999/xlink" width="32" height="32"><defs><style type="text/css"></style></defs><path d="M279.14207 542.179346c0 59.298548-47.994084 107.361193-107.194394 107.361193-59.177797 0-107.171881-48.062646-107.171881-107.361193 0-59.289338 47.994084-107.349937 107.171881-107.349937C231.147986 434.82941 279.14207 482.890009 279.14207 542.179346z" fill="#dbdbdb" p-id="1750"></path><path d="M626.880959 534.605857c0 59.298548-47.992037 107.36017-107.192348 107.36017-59.179844 0-107.172905-48.061622-107.172905-107.36017 0-59.300594 47.993061-107.349937 107.172905-107.349937C578.888921 427.25592 626.880959 475.305263 626.880959 534.605857z" fill="#dbdbdb" p-id="1751"></path><path d="M959.517895 534.605857c0 59.298548-47.993061 107.36017-107.194394 107.36017-59.178821 0-107.171881-48.061622-107.171881-107.36017 0-59.300594 47.993061-107.349937 107.171881-107.349937C911.524834 427.25592 959.517895 475.305263 959.517895 534.605857z" fill="#dbdbdb" p-id="1752"></path></svg>