<?xml version="1.0" standalone="no"?><!DOCTYPE svg PUBLIC "-//W3C//DTD SVG 1.1//EN" "http://www.w3.org/Graphics/SVG/1.1/DTD/svg11.dtd"><svg t="1547610192986" class="icon" style="" viewBox="0 0 1024 1024" version="1.1" xmlns="http://www.w3.org/2000/svg" p-id="2428" xmlns:xlink="http://www.w3.org/1999/xlink" width="32" height="32"><defs><style type="text/css"></style></defs><path d="M271.301 1024c-0.009 0-0.020 0-0.031 0-7.118 0-13.561-2.89-18.22-7.561-10.082-10.081-10.082-26.425-0.001-36.505l469.763-469.765-463.26-460.048c-10.115-10.046-10.174-26.387-0.126-36.504 10.044-10.115 26.387-10.174 36.504-0.126l465.588 462.362c9.212 9.21 14.249 21.375 14.249 34.315-0.002 12.939-5.040 25.102-14.189 34.247l-472.027 472.024c-4.659 4.671-11.102 7.562-18.22 7.562-0.011 0-0.022 0-0.033 0z" p-id="2429" fill="#515151"></path></svg>