<?xml version="1.0" standalone="no"?><!DOCTYPE svg PUBLIC "-//W3C//DTD SVG 1.1//EN" "http://www.w3.org/Graphics/SVG/1.1/DTD/svg11.dtd"><svg t="1547609888079" class="icon" style="" viewBox="0 0 1024 1024" version="1.1" xmlns="http://www.w3.org/2000/svg" p-id="3731" xmlns:xlink="http://www.w3.org/1999/xlink" width="32" height="32"><defs><style type="text/css"></style></defs><path d="M512 62C264.5 62 62 264.5 62 512v350.7c0 54.6 44.7 99.3 99.3 99.3 54.6 0 99.3-44.7 99.3-99.3V736.1c0-54.6-44.7-99.3-99.3-99.3-7.9 0-15.5 0.9-22.9 2.7V512c0-205.4 168.1-373.5 373.5-373.5S885.4 306.6 885.4 512v127.5c-7.3-1.7-15-2.7-22.9-2.7-54.6 0-99.3 44.7-99.3 99.3v126.6c0 54.6 44.7 99.3 99.3 99.3 54.6 0 99.3-44.7 99.3-99.3V512C962 264.5 759.5 62 512 62z" fill="#ffffff" p-id="3732"></path></svg>