<?xml version="1.0" standalone="no"?><!DOCTYPE svg PUBLIC "-//W3C//DTD SVG 1.1//EN" "http://www.w3.org/Graphics/SVG/1.1/DTD/svg11.dtd"><svg t="1547627415215" class="icon" style="" viewBox="0 0 1024 1024" version="1.1" xmlns="http://www.w3.org/2000/svg" p-id="13095" xmlns:xlink="http://www.w3.org/1999/xlink" width="32" height="32"><defs><style type="text/css"></style></defs><path d="M510.874388 123.408014c120.952134 0 241.904267 1.330269 362.856401-0.61397 59.452783-0.920955 83.704607 25.479764 83.295293 83.090637-0.920955 148.887779-0.920955 297.775557 0.102328 446.561007 0.409313 62.522634-29.982212 85.955831-90.253622 85.034876-118.598581-1.841911-237.29949 2.046567-355.898071-1.841911-53.108424-1.739582-91.174578 12.58639-124.94294 53.927051-27.321675 33.359049-63.750575 59.248126-95.165384 89.434996-34.689317 33.461377-51.778155 20.772659-59.145798-20.977316-0.818627-4.502448-0.920955-9.41421-0.204657-13.916658 12.791046-78.792845-6.856001-123.101029-100.281803-109.184371-42.466274 6.344359-67.332068-25.070451-67.332068-69.787948-0.204657-155.846108 0-311.692215-0.204657-467.538323 0-51.880484 25.275107-75.109024 77.257919-74.69971C264.365344 124.124313 387.568702 123.408014 510.874388 123.408014zM297.826721 797.138003c19.237734-17.805136 34.791646-28.447287 45.433796-42.773259 45.84311-61.294694 105.193565-78.383532 180.711902-73.778755 106.626162 6.446687 214.07095 0.204657 321.106426 2.251224 39.908064 0.716299 58.941141-7.674628 58.020186-53.210752-2.660538-132.617568-2.046567-265.337464-0.716299-397.955031 0.409313-36.326571-6.446687-54.541021-49.219946-54.234036-228.089937 1.841911-456.179874 1.739582-684.269811 0-40.931348-0.306985-51.164185 14.632957-50.754872 52.801439 1.637254 134.97112 1.637254 269.94224-0.102328 404.913361-0.511642 37.247527 13.302688 46.661737 48.810633 47.68502C273.984211 686.009393 273.984211 687.544319 297.826721 797.138003z" p-id="13096" fill="#707070"></path><path d="M517.321075 402.866793c71.936844 0 143.976017-0.511642 215.912861 0.409313 19.340062 0.204657 47.480364-6.037374 48.912961 24.047167 1.432597 28.958929-24.661137 29.572899-45.536125 29.572899-150.934346 0.306985-301.868692 0.306985-452.803038 0-20.977316-0.102328-46.968722-0.716299-45.433796-29.675227 1.637254-30.084541 29.675227-23.740182 49.015289-23.944839C364.033177 402.355151 440.677126 402.866793 517.321075 402.866793z" p-id="13097" fill="#707070"></path><path d="M510.158089 291.021885c74.188068 0 148.376137-0.511642 222.461877 0.306985 19.647047 0.204657 47.275707-4.911762 49.015289 24.45648 1.739582 29.163585-24.354152 29.470571-45.22914 29.470571-150.627361 0.409313-301.254722 0.409313-451.882083 0-20.772659 0-46.968722 0-45.536125-29.163585 1.432597-29.572899 29.061257-24.661137 48.708304-24.865794C361.781953 290.510243 435.970021 291.021885 510.158089 291.021885z" p-id="13098" fill="#707070"></path><path d="M426.760468 515.428c50.959528 0 101.816728-0.409313 152.776257 0.204657 16.781853 0.204657 33.973019 4.502448 34.791646 25.479764 0.920955 21.488958-15.963226 26.912361-32.949735 27.01469-101.816728 0.716299-203.633457 0.920955-305.552513 0.511642-19.851704-0.102328-39.396423-7.162986-37.963825-30.698511 1.534926-26.503048 25.786749-22.205256 43.080244-22.512241 48.605976-1.023284 97.211952-0.306985 145.817927-0.306985C426.760468 515.223344 426.760468 515.325672 426.760468 515.428z" p-id="13099" fill="#707070"></path></svg>