<?xml version="1.0" standalone="no"?><!DOCTYPE svg PUBLIC "-//W3C//DTD SVG 1.1//EN" "http://www.w3.org/Graphics/SVG/1.1/DTD/svg11.dtd"><svg t="1547787285388" class="icon" style="" viewBox="0 0 1024 1024" version="1.1" xmlns="http://www.w3.org/2000/svg" p-id="35485" xmlns:xlink="http://www.w3.org/1999/xlink" width="32" height="32"><defs><style type="text/css"></style></defs><path d="M512 857.3c-6.9 0-13.8-2.6-19-7.9l-55-54.9H136.6c-40 0-72.6-32.6-72.6-72.6V239.3c0-40 32.6-72.6 72.6-72.6h750.7c40.1 0 72.6 32.6 72.6 72.6v482.6c0 40.1-32.6 72.6-72.6 72.6H585.9L531 849.4c-5.2 5.3-12.1 7.9-19 7.9zM136.6 204.7c-19.1 0-34.6 15.5-34.6 34.6v482.6c0 19.1 15.5 34.6 34.6 34.6h317.2l58.2 58.2 58.2-58.2h317.1c19.1 0 34.6-15.5 34.6-34.6V239.3c0-19.1-15.5-34.6-34.6-34.6H136.6zM749.4 403c0-10.5-8.5-19-19-19H293.6c-10.5 0-19 8.5-19 19s8.5 19 19 19h436.8c10.5 0 19-8.5 19-19z m0 176.4c0-10.5-8.5-19-19-19H293.6c-10.5 0-19 8.5-19 19s8.5 19 19 19h436.8c10.5 0 19-8.5 19-19z" fill="#515151" p-id="35486"></path></svg>