<?xml version="1.0" standalone="no"?><!DOCTYPE svg PUBLIC "-//W3C//DTD SVG 1.1//EN" "http://www.w3.org/Graphics/SVG/1.1/DTD/svg11.dtd"><svg t="1547787240929" class="icon" style="" viewBox="0 0 1024 1024" version="1.1" xmlns="http://www.w3.org/2000/svg" p-id="33713" xmlns:xlink="http://www.w3.org/1999/xlink" width="32" height="32"><defs><style type="text/css"></style></defs><path d="M205.806066 512.21871h-87.483981v-218.709953a131.225972 131.225972 0 0 1 131.225971-131.225972h568.645878v87.483981h-568.645878a43.741991 43.741991 0 0 0-43.74199 43.741991z" fill="#515151" p-id="33714"></path><path d="M708.838958 433.045707l-62.113627-62.113627L800.259718 217.397693l-154.846647-155.721486L707.526698 0l216.085434 217.397693-214.773174 215.648014zM774.451944 862.154635h-568.645878v-87.483981h568.645878a43.741991 43.741991 0 0 0 43.74199-43.741991v-218.709953h87.483981v218.709953a131.225972 131.225972 0 0 1-131.225971 131.225972z" fill="#515151" p-id="33715"></path><path d="M316.473302 1024L100.387868 806.602307l214.773174-215.648014 62.113627 62.113627-153.534387 153.534387L378.586929 962.323793l-62.113627 61.676207z" fill="#515151" p-id="33716"></path></svg>